{
    "asset" : {
        "copyright" : "Prepar3DGuy",
        "extensions" : {
            "ASOBO_normal_map_convention" : {
                "tangent_space_convention" : "DirectX"
            }
        },
        "generator" : "Extended Khronos glTF Blender I/O v1.0.0",
        "version" : "2.0"
    },
    "extensionsUsed" : [
        "ASOBO_normal_map_convention"
    ],
    "scene" : 0,
    "scenes" : [
        {
            "name" : "Scene",
            "nodes" : [
                0,
                1
            ]
        }
    ],
    "nodes" : [
        {
            "mesh" : 0,
            "name" : "Cockpit"
        },
        {
            "mesh" : 1,
            "name" : "Display",
            "translation" : [
                0.43247881531715393,
                0.49780383706092834,
                0.48326143622398376
            ]
        }
    ],
    "materials" : [
        {
            "emissiveFactor" : [
                0,
                0,
                0
            ],
            "name" : "Material_Interior",
            "pbrMetallicRoughness" : {
                "baseColorFactor" : [
                    0.31854671239852905,
                    0.11122354120016098,
                    0.10645706951618195,
                    1
                ],
                "metallicFactor" : 0,
                "roughnessFactor" : 0.5
            }
        },
        {
            "emissiveFactor" : [
                0,
                0,
                0
            ],
            "name" : "Material_Display",
            "pbrMetallicRoughness" : {
                "baseColorFactor" : [
                    0.800000011920929,
                    0.800000011920929,
                    0.800000011920929,
                    1
                ],
                "metallicFactor" : 0,
                "roughnessFactor" : 0.5
            }
        }
    ],
    "meshes" : [
        {
            "name" : "Cube.001",
            "primitives" : [
                {
                    "attributes" : {
                        "POSITION" : 0,
                        "NORMAL" : 1,
                        "TEXCOORD_0" : 2
                    },
                    "indices" : 3,
                    "material" : 0
                }
            ]
        },
        {
            "name" : "Cube.002",
            "primitives" : [
                {
                    "attributes" : {
                        "POSITION" : 4,
                        "NORMAL" : 5,
                        "TEXCOORD_0" : 6
                    },
                    "indices" : 7,
                    "material" : 1
                }
            ]
        }
    ],
    "accessors" : [
        {
            "bufferView" : 0,
            "componentType" : 5126,
            "count" : 37,
            "max" : [
                0.8848193883895874,
                0.903469979763031,
                0.49335503578186035
            ],
            "min" : [
                -0.8848193883895874,
                0.0455855131149292,
                -2.128512382507324
            ],
            "type" : "VEC3"
        },
        {
            "bufferView" : 1,
            "componentType" : 5126,
            "count" : 37,
            "type" : "VEC3"
        },
        {
            "bufferView" : 2,
            "componentType" : 5126,
            "count" : 37,
            "type" : "VEC2"
        },
        {
            "bufferView" : 3,
            "componentType" : 5123,
            "count" : 72,
            "type" : "SCALAR"
        },
        {
            "bufferView" : 4,
            "componentType" : 5126,
            "count" : 56,
            "max" : [
                0.25,
                0.25,
                0.014346212148666382
            ],
            "min" : [
                -0.25,
                -0.25,
                -0.014346182346343994
            ],
            "type" : "VEC3"
        },
        {
            "bufferView" : 5,
            "componentType" : 5126,
            "count" : 56,
            "type" : "VEC3"
        },
        {
            "bufferView" : 6,
            "componentType" : 5126,
            "count" : 56,
            "type" : "VEC2"
        },
        {
            "bufferView" : 7,
            "componentType" : 5123,
            "count" : 84,
            "type" : "SCALAR"
        }
    ],
    "bufferViews" : [
        {
            "buffer" : 0,
            "byteLength" : 444,
            "byteOffset" : 0
        },
        {
            "buffer" : 0,
            "byteLength" : 444,
            "byteOffset" : 444
        },
        {
            "buffer" : 0,
            "byteLength" : 296,
            "byteOffset" : 888
        },
        {
            "buffer" : 0,
            "byteLength" : 144,
            "byteOffset" : 1184
        },
        {
            "buffer" : 0,
            "byteLength" : 672,
            "byteOffset" : 1328
        },
        {
            "buffer" : 0,
            "byteLength" : 672,
            "byteOffset" : 2000
        },
        {
            "buffer" : 0,
            "byteLength" : 448,
            "byteOffset" : 2672
        },
        {
            "buffer" : 0,
            "byteLength" : 168,
            "byteOffset" : 3120
        }
    ],
    "buffers" : [
        {
            "byteLength" : 3288,
            "uri" : "DemoDummy_Interior_LOD00.bin"
        }
    ]
}
