{
    "asset" : {
        "copyright" : "Prepar3DGuy",
        "extensions" : {
            "ASOBO_normal_map_convention" : {
                "tangent_space_convention" : "DirectX"
            }
        },
        "generator" : "Extended Khronos glTF Blender I/O v1.0.0",
        "version" : "2.0"
    },
    "extensionsUsed" : [
        "ASOBO_normal_map_convention"
    ],
    "scene" : 0,
    "scenes" : [
        {
            "name" : "Scene",
            "nodes" : [
                0,
                1,
                2,
                3,
                4
            ]
        }
    ],
    "nodes" : [
        {
            "mesh" : 0,
            "name" : "Cockpit"
        },
        {
            "mesh" : 1,
            "name" : "Display",
            "translation" : [
                0.43247881531715393,
                0.49780383706092834,
                0.48326143622398376
            ]
        },
        {
            "mesh" : 2,
            "name" : "Screen",
            "rotation" : [
                0,
                0,
                0.7071067690849304,
                0.7071068286895752
            ],
            "translation" : [
                0.43247881531715393,
                0.49780383706092834,
                0.48326143622398376
            ]
        },
        {
            "mesh" : 3,
            "name" : "Button_Red",
            "translation" : [
                -0.13907214999198914,
                0.6624502539634705,
                0.4869975745677948
            ]
        },
        {
            "mesh" : 4,
            "name" : "Button_Green",
            "translation" : [
                -0.13907214999198914,
                0.5026043653488159,
                0.4869975745677948
            ]
        }
    ],
    "animations" : [
        {
            "channels" : [
                {
                    "sampler" : 0,
                    "target" : {
                        "node" : 3,
                        "path" : "translation"
                    }
                }
            ],
            "name" : "RedButtonPushAnimation",
            "samplers" : [
                {
                    "input" : 19,
                    "interpolation" : "LINEAR",
                    "output" : 20
                }
            ]
        },
        {
            "channels" : [
                {
                    "sampler" : 0,
                    "target" : {
                        "node" : 4,
                        "path" : "translation"
                    }
                }
            ],
            "name" : "GreenButtonPushAnimation",
            "samplers" : [
                {
                    "input" : 19,
                    "interpolation" : "LINEAR",
                    "output" : 21
                }
            ]
        }
    ],
    "materials" : [
        {
            "emissiveFactor" : [
                0,
                0,
                0
            ],
            "name" : "Material_Interior",
            "pbrMetallicRoughness" : {
                "baseColorFactor" : [
                    0.31854671239852905,
                    0.11122354120016098,
                    0.10645706951618195,
                    1
                ],
                "metallicFactor" : 0,
                "roughnessFactor" : 0.5
            }
        },
        {
            "emissiveFactor" : [
                0,
                0,
                0
            ],
            "name" : "Material_Display",
            "pbrMetallicRoughness" : {
                "baseColorFactor" : [
                    0.009018111042678356,
                    0.009018111042678356,
                    0.009018111042678356,
                    1
                ],
                "metallicFactor" : 0,
                "roughnessFactor" : 0.5
            }
        },
        {
            "emissiveFactor" : [
                1,
                1,
                1
            ],
            "name" : "$SCREEN_1",
            "pbrMetallicRoughness" : {}
        },
        {
            "emissiveFactor" : [
                0,
                0,
                0
            ],
            "name" : "Material",
            "pbrMetallicRoughness" : {
                "baseColorTexture" : {
                    "index" : 0,
                    "texCoord" : 0
                },
                "metallicFactor" : 0,
                "roughnessFactor" : 0.5
            }
        }
    ],
    "meshes" : [
        {
            "name" : "Cube.001",
            "primitives" : [
                {
                    "attributes" : {
                        "POSITION" : 0,
                        "NORMAL" : 1,
                        "TEXCOORD_0" : 2
                    },
                    "indices" : 3,
                    "material" : 0
                }
            ]
        },
        {
            "name" : "Cube.002",
            "primitives" : [
                {
                    "attributes" : {
                        "POSITION" : 4,
                        "NORMAL" : 5,
                        "TEXCOORD_0" : 6
                    },
                    "indices" : 7,
                    "material" : 1
                }
            ]
        },
        {
            "name" : "Cube.003",
            "primitives" : [
                {
                    "attributes" : {
                        "POSITION" : 8,
                        "NORMAL" : 9,
                        "TEXCOORD_0" : 10
                    },
                    "indices" : 11,
                    "material" : 2
                }
            ]
        },
        {
            "name" : "Cube",
            "primitives" : [
                {
                    "attributes" : {
                        "POSITION" : 12,
                        "NORMAL" : 13,
                        "TEXCOORD_0" : 14
                    },
                    "indices" : 15,
                    "material" : 3
                }
            ]
        },
        {
            "name" : "Cube.004",
            "primitives" : [
                {
                    "attributes" : {
                        "POSITION" : 16,
                        "NORMAL" : 17,
                        "TEXCOORD_0" : 18
                    },
                    "indices" : 15,
                    "material" : 3
                }
            ]
        }
    ],
    "textures" : [
        {
            "source" : 0
        }
    ],
    "images" : [
        {
            "mimeType" : "image/png",
            "name" : "Cockpit_albd",
            "uri" : "Cockpit_albd.png"
        }
    ],
    "accessors" : [
        {
            "bufferView" : 0,
            "componentType" : 5126,
            "count" : 37,
            "max" : [
                0.8848193883895874,
                0.903469979763031,
                0.49335503578186035
            ],
            "min" : [
                -0.8848193883895874,
                0.0455855131149292,
                -2.128512382507324
            ],
            "type" : "VEC3"
        },
        {
            "bufferView" : 1,
            "componentType" : 5126,
            "count" : 37,
            "type" : "VEC3"
        },
        {
            "bufferView" : 2,
            "componentType" : 5126,
            "count" : 37,
            "type" : "VEC2"
        },
        {
            "bufferView" : 3,
            "componentType" : 5123,
            "count" : 72,
            "type" : "SCALAR"
        },
        {
            "bufferView" : 4,
            "componentType" : 5126,
            "count" : 52,
            "max" : [
                0.25,
                0.25,
                0.014346212148666382
            ],
            "min" : [
                -0.25,
                -0.25,
                -0.014346182346343994
            ],
            "type" : "VEC3"
        },
        {
            "bufferView" : 5,
            "componentType" : 5126,
            "count" : 52,
            "type" : "VEC3"
        },
        {
            "bufferView" : 6,
            "componentType" : 5126,
            "count" : 52,
            "type" : "VEC2"
        },
        {
            "bufferView" : 7,
            "componentType" : 5123,
            "count" : 78,
            "type" : "SCALAR"
        },
        {
            "bufferView" : 8,
            "componentType" : 5126,
            "count" : 4,
            "max" : [
                0.22845497727394104,
                0.22845497727394104,
                -9.877420961856842e-05
            ],
            "min" : [
                -0.22845497727394104,
                -0.22845497727394104,
                -9.877420961856842e-05
            ],
            "type" : "VEC3"
        },
        {
            "bufferView" : 9,
            "componentType" : 5126,
            "count" : 4,
            "type" : "VEC3"
        },
        {
            "bufferView" : 10,
            "componentType" : 5126,
            "count" : 4,
            "type" : "VEC2"
        },
        {
            "bufferView" : 11,
            "componentType" : 5123,
            "count" : 6,
            "type" : "SCALAR"
        },
        {
            "bufferView" : 12,
            "componentType" : 5126,
            "count" : 40,
            "max" : [
                0.10091499239206314,
                0.04948054254055023,
                0.03822977840900421
            ],
            "min" : [
                -0.10091499239206314,
                -0.049480509012937546,
                -0.0382295697927475
            ],
            "type" : "VEC3"
        },
        {
            "bufferView" : 13,
            "componentType" : 5126,
            "count" : 40,
            "type" : "VEC3"
        },
        {
            "bufferView" : 14,
            "componentType" : 5126,
            "count" : 40,
            "type" : "VEC2"
        },
        {
            "bufferView" : 15,
            "componentType" : 5123,
            "count" : 60,
            "type" : "SCALAR"
        },
        {
            "bufferView" : 16,
            "componentType" : 5126,
            "count" : 40,
            "max" : [
                0.10091499239206314,
                0.04948054254055023,
                0.03822977840900421
            ],
            "min" : [
                -0.10091499239206314,
                -0.049480509012937546,
                -0.0382295697927475
            ],
            "type" : "VEC3"
        },
        {
            "bufferView" : 17,
            "componentType" : 5126,
            "count" : 40,
            "type" : "VEC3"
        },
        {
            "bufferView" : 18,
            "componentType" : 5126,
            "count" : 40,
            "type" : "VEC2"
        },
        {
            "bufferView" : 19,
            "componentType" : 5126,
            "count" : 101,
            "max" : [
                4.166666666666667
            ],
            "min" : [
                0
            ],
            "type" : "SCALAR"
        },
        {
            "bufferView" : 20,
            "componentType" : 5126,
            "count" : 101,
            "type" : "VEC3"
        },
        {
            "bufferView" : 21,
            "componentType" : 5126,
            "count" : 101,
            "type" : "VEC3"
        }
    ],
    "bufferViews" : [
        {
            "buffer" : 0,
            "byteLength" : 444,
            "byteOffset" : 0
        },
        {
            "buffer" : 0,
            "byteLength" : 444,
            "byteOffset" : 444
        },
        {
            "buffer" : 0,
            "byteLength" : 296,
            "byteOffset" : 888
        },
        {
            "buffer" : 0,
            "byteLength" : 144,
            "byteOffset" : 1184
        },
        {
            "buffer" : 0,
            "byteLength" : 624,
            "byteOffset" : 1328
        },
        {
            "buffer" : 0,
            "byteLength" : 624,
            "byteOffset" : 1952
        },
        {
            "buffer" : 0,
            "byteLength" : 416,
            "byteOffset" : 2576
        },
        {
            "buffer" : 0,
            "byteLength" : 156,
            "byteOffset" : 2992
        },
        {
            "buffer" : 0,
            "byteLength" : 48,
            "byteOffset" : 3148
        },
        {
            "buffer" : 0,
            "byteLength" : 48,
            "byteOffset" : 3196
        },
        {
            "buffer" : 0,
            "byteLength" : 32,
            "byteOffset" : 3244
        },
        {
            "buffer" : 0,
            "byteLength" : 12,
            "byteOffset" : 3276
        },
        {
            "buffer" : 0,
            "byteLength" : 480,
            "byteOffset" : 3288
        },
        {
            "buffer" : 0,
            "byteLength" : 480,
            "byteOffset" : 3768
        },
        {
            "buffer" : 0,
            "byteLength" : 320,
            "byteOffset" : 4248
        },
        {
            "buffer" : 0,
            "byteLength" : 120,
            "byteOffset" : 4568
        },
        {
            "buffer" : 0,
            "byteLength" : 480,
            "byteOffset" : 4688
        },
        {
            "buffer" : 0,
            "byteLength" : 480,
            "byteOffset" : 5168
        },
        {
            "buffer" : 0,
            "byteLength" : 320,
            "byteOffset" : 5648
        },
        {
            "buffer" : 0,
            "byteLength" : 404,
            "byteOffset" : 5968
        },
        {
            "buffer" : 0,
            "byteLength" : 1212,
            "byteOffset" : 6372
        },
        {
            "buffer" : 0,
            "byteLength" : 1212,
            "byteOffset" : 7584
        }
    ],
    "buffers" : [
        {
            "byteLength" : 8796,
            "uri" : "DemoDummy_Interior_LOD00.bin"
        }
    ]
}
